<?xml version="1.0" standalone="no"?>
<!DOCTYPE svg PUBLIC "-//W3C//DTD SVG 20010904//EN"
 "http://www.w3.org/TR/2001/REC-SVG-20010904/DTD/svg10.dtd">
<svg version="1.0" xmlns="http://www.w3.org/2000/svg"
 width="300.000000pt" height="300.000000pt" viewBox="0 0 300.000000 300.000000"
 preserveAspectRatio="xMidYMid meet">

<g transform="translate(0.000000,300.000000) scale(0.100000,-0.100000)"
fill="#000000" stroke="none">
<path d="M1430 2968 c-106 -55 -104 -185 3 -243 l37 -20 0 -82 c0 -46 -1 -84
-2 -84 -2 -1 -198 -5 -435 -8 -375 -6 -435 -9 -449 -22 -14 -15 -14 -18 1 -33
9 -9 25 -16 35 -16 10 0 27 -15 38 -32 11 -18 121 -149 246 -291 124 -142 228
-262 231 -267 5 -8 -417 -335 -465 -360 -16 -8 -23 -6 -37 10 -10 11 -25 20
-34 20 -21 0 -43 -26 -34 -40 9 -14 212 -242 453 -508 100 -111 182 -208 182
-215 0 -7 -17 -47 -38 -88 -31 -60 -41 -93 -52 -174 -11 -89 -11 -107 3 -156
37 -125 110 -192 270 -246 302 -101 442 -118 592 -69 141 45 294 150 351 239
58 90 67 231 19 301 -13 19 -150 178 -304 355 -155 176 -281 326 -281 334 0
14 142 128 315 252 61 43 133 98 162 122 29 25 56 42 60 40 5 -3 26 -30 48
-61 45 -62 62 -73 83 -52 20 19 6 44 -104 196 -87 119 -105 133 -127 99 -8
-13 -3 -29 23 -68 l33 -52 -29 -30 c-16 -17 -69 -60 -119 -97 -49 -36 -158
-117 -242 -179 -83 -62 -155 -113 -160 -113 -8 0 -80 79 -119 132 -20 27 -22
45 -29 312 -5 207 -4 289 5 305 12 24 479 377 517 392 13 5 38 9 54 9 35 0 45
19 33 62 -14 49 -34 55 -80 24 l-41 -26 -249 2 -249 3 -3 74 -3 74 48 49 c46
47 48 51 48 108 0 51 -4 63 -29 89 -27 29 -78 51 -116 51 -9 0 -36 -10 -60
-22z m153 -48 c45 -50 32 -136 -24 -166 -76 -39 -166 2 -175 81 -6 51 12 85
56 108 50 26 107 17 143 -23z m352 -455 c-1 -9 -204 -168 -327 -256 l-58 -40
0 150 0 150 158 4 c211 4 227 4 227 -8z m-454 -165 c3 -91 4 -170 2 -177 -7
-17 -270 -213 -287 -213 -8 0 -16 4 -18 9 -1 5 -104 124 -226 264 -123 140
-225 259 -225 264 -2 8 347 19 603 18 l145 0 6 -165z m9 -495 c0 -124 -4 -215
-9 -215 -10 0 -158 161 -206 224 l-29 39 34 29 c46 38 192 138 202 138 4 0 8
-97 8 -215z m-150 -166 c77 -88 145 -171 150 -185 6 -14 10 -89 10 -167 0
-118 -3 -147 -17 -167 -32 -46 -226 -280 -233 -280 -14 0 -534 585 -534 601
-1 19 461 372 475 363 5 -3 72 -77 149 -165z m279 -321 l33 -36 -33 -31 c-19
-17 -37 -31 -40 -31 -10 0 -22 127 -14 141 4 6 10 7 14 2 3 -4 21 -24 40 -45z
m377 -429 c165 -187 305 -355 311 -372 16 -41 7 -118 -20 -177 -30 -64 -90
-117 -198 -177 -165 -91 -297 -109 -464 -60 -49 14 -125 35 -168 47 -101 26
-151 52 -205 104 -82 78 -105 159 -79 282 15 68 56 166 76 178 9 6 78 -62 182
-182 64 -73 99 -93 128 -75 14 9 16 46 12 337 l-4 326 59 55 c32 30 62 55 65
55 4 0 141 -153 305 -341z m-492 119 c9 -35 7 -448 -2 -448 -13 0 -197 211
-197 226 0 15 174 244 185 244 4 0 10 -10 14 -22z"/>
</g>
</svg>
