<?xml version="1.0" standalone="no"?>
<!DOCTYPE svg PUBLIC "-//W3C//DTD SVG 20010904//EN"
 "http://www.w3.org/TR/2001/REC-SVG-20010904/DTD/svg10.dtd">
<svg version="1.0" xmlns="http://www.w3.org/2000/svg"
 width="1066.000000pt" height="1051.000000pt" viewBox="0 0 1066.000000 1051.000000"
 preserveAspectRatio="xMidYMid meet">

<g transform="translate(0.000000,1051.000000) scale(0.100000,-0.100000)"
fill="#000000" stroke="none">
<path d="M3037 10134 c-362 -354 -642 -629 -937 -919 -292 -288 -409 -402
-1045 -1020 -181 -176 -449 -438 -595 -582 l-265 -261 0 -2074 0 -2074 380
-374 c466 -459 803 -790 825 -810 45 -41 736 -715 952 -929 136 -134 252 -247
258 -251 7 -4 98 -92 203 -197 106 -104 242 -237 303 -296 l112 -107 800 0
801 0 3 38 c2 20 2 157 0 304 l-3 268 -675 0 -675 0 -247 242 c-136 134 -335
328 -442 433 -107 104 -289 282 -405 395 -115 114 -284 278 -375 365 -201 196
-541 527 -835 816 -121 118 -251 245 -290 281 l-70 67 -3 755 -3 756 100 0
100 0 3 -710 3 -711 150 -147 c283 -278 1063 -1039 1745 -1703 212 -205 446
-434 520 -506 l135 -133 638 0 637 0 0 305 0 305 -507 0 -507 0 -90 87 c-50
48 -188 182 -306 297 -485 473 -594 580 -790 771 -403 393 -579 563 -888 858
l-102 97 0 1504 0 1503 208 199 c260 250 757 734 1242 1210 299 293 531 519
650 633 l85 81 605 -3 605 -2 3 -97 3 -98 -569 0 -568 0 -324 -317 c-179 -174
-516 -504 -750 -732 -234 -229 -488 -477 -565 -551 -77 -75 -204 -199 -283
-276 l-143 -139 -2 -655 -2 -655 310 0 310 0 3 526 2 526 353 344 c193 189
550 537 792 774 242 237 467 457 501 488 l61 57 1179 0 1179 0 90 -88 c388
-376 968 -944 1257 -1231 l348 -344 0 -429 0 -428 -100 0 -100 0 0 386 0 386
-223 222 c-123 121 -408 401 -633 621 -225 220 -479 468 -564 552 l-155 153
-500 -3 -500 -2 -3 -302 -2 -303 372 0 372 0 141 -138 c77 -76 348 -343 603
-594 l463 -456 -1 -825 0 -825 -177 -174 c-98 -95 -263 -256 -368 -358 -104
-103 -296 -288 -426 -413 l-236 -227 -57 0 -56 0 0 83 0 83 113 110 c105 103
274 266 587 568 74 71 199 193 278 270 l142 139 0 319 0 318 -312 -2 -313 -3
-3 -191 -2 -191 -245 -238 -245 -237 0 140 0 139 145 142 145 141 0 409 0 409
-272 263 c-149 145 -285 279 -301 297 -27 28 -36 32 -84 32 l-54 0 3 98 3 97
88 3 89 3 136 -133 c76 -73 240 -234 366 -358 l230 -225 1 -50 c1 -27 2 -114
3 -192 l2 -143 310 0 310 0 0 323 0 324 -67 64 c-38 35 -282 274 -542 531
l-475 468 -762 0 -761 0 -259 -252 c-143 -139 -388 -379 -546 -534 l-288 -282
0 -216 0 -216 -100 0 -100 0 0 258 0 258 113 110 c604 589 927 904 1008 982
l95 92 370 0 370 0 3 259 c1 143 -1 280 -4 305 l-7 46 -497 0 -496 0 -355
-347 c-195 -190 -524 -511 -730 -712 -206 -202 -402 -392 -435 -423 l-60 -57
-3 -1076 -3 -1077 228 -221 c125 -123 329 -319 453 -437 123 -118 375 -361
558 -540 183 -179 343 -328 354 -333 11 -4 145 -6 297 -5 l276 3 3 302 2 303
-163 0 -163 0 -39 41 c-22 23 -107 104 -190 182 -82 77 -338 323 -567 546
l-418 406 0 258 0 257 100 0 100 0 0 -218 0 -218 78 -75 c42 -41 235 -228 427
-415 347 -337 471 -457 551 -527 l41 -37 123 0 123 0 -6 182 c-4 99 -7 240 -7
312 l0 131 -350 340 -350 339 0 492 0 491 193 189 c105 104 269 265 363 357
l171 167 91 0 92 0 0 -100 0 -100 -48 0 -49 0 -306 -296 -307 -296 0 -408 0
-408 148 -144 c81 -79 217 -212 303 -296 l156 -152 52 0 51 0 0 -900 c0 -713
-3 -900 -12 -901 -7 0 -204 0 -437 0 l-424 0 -131 128 c-72 70 -234 229 -361
352 -345 338 -522 509 -600 581 -38 35 -190 180 -337 323 l-268 259 -2 526 -3
527 -310 0 -310 0 -3 -651 -2 -651 172 -164 c223 -211 537 -515 1043 -1009
115 -113 289 -282 385 -375 96 -94 240 -234 320 -313 l146 -142 567 0 567 0 0
-885 0 -885 105 0 105 0 0 985 0 985 -627 0 -627 0 -171 168 c-367 362 -1152
1125 -1552 1510 l-222 213 -1 479 c0 264 2 491 6 505 6 25 8 25 105 25 l99 0
0 -469 0 -468 203 -194 c111 -107 240 -230 287 -274 101 -94 662 -639 1052
-1022 l277 -273 586 0 585 0 0 1110 0 1110 -116 0 -115 0 -152 148 c-84 81
-191 185 -239 232 l-88 84 0 322 0 322 240 236 241 236 114 0 115 0 0 310 0
310 -236 0 -236 0 -81 -77 c-163 -157 -456 -442 -614 -598 l-163 -160 -1 -575
-1 -575 352 -345 351 -345 -3 -138 -3 -138 -452 441 -453 441 0 275 0 274 -72
2 c-40 1 -180 2 -310 3 l-238 0 1 -405 1 -405 431 -416 c238 -230 538 -519
667 -643 l235 -226 102 0 103 0 0 -100 0 -100 -147 0 -147 0 -190 188 c-105
104 -296 290 -425 413 -129 123 -371 356 -538 518 l-304 295 6 990 7 991 131
129 c73 72 301 294 507 495 206 201 472 462 590 578 l215 213 353 0 352 0 0
-95 0 -95 -305 0 -306 0 -227 -222 c-125 -122 -234 -229 -243 -237 -21 -21
-373 -366 -652 -640 l-217 -213 0 -404 0 -404 310 0 310 0 0 279 0 279 488
475 487 476 669 1 670 0 350 -348 c193 -191 411 -406 484 -477 l132 -129 0
-177 0 -177 -100 2 -100 1 0 130 0 131 -152 149 c-84 83 -277 272 -429 422
l-276 272 -239 -2 -239 -2 -3 -307 -2 -308 115 0 116 0 239 -232 239 -233 1
-325 1 -325 -146 -140 -145 -140 0 -424 c-1 -233 1 -425 3 -427 2 -2 113 103
248 234 134 130 339 330 456 442 l212 205 1 128 0 127 100 0 100 0 0 -174 0
-173 -62 -58 c-35 -32 -207 -198 -383 -370 -176 -171 -400 -387 -497 -481
l-178 -169 0 -227 0 -228 208 0 207 0 95 92 c52 50 167 162 255 247 88 86 277
269 420 406 142 138 328 318 412 400 l153 150 0 900 0 900 -382 380 c-333 330
-655 647 -890 874 -48 46 -76 66 -95 67 -16 0 -153 2 -305 2 l-278 2 0 95 0
95 351 0 351 0 412 -402 c226 -222 552 -542 724 -713 l312 -309 0 -443 0 -443
310 0 310 0 0 574 0 574 -477 468 c-263 258 -559 548 -658 644 -99 96 -290
284 -425 417 l-245 243 -675 0 c-371 1 -945 3 -1275 6 l-600 5 -185 -183
c-151 -150 -1089 -1066 -1532 -1497 l-108 -105 0 -468 0 -468 -100 0 -100 0 0
514 c0 324 4 516 10 518 5 2 92 84 192 183 101 99 251 245 333 325 83 80 267
260 410 400 143 140 424 415 624 610 l363 355 632 5 631 5 3 303 2 302 -762 0
-763 0 -185 -183 c-102 -100 -275 -270 -385 -377 -486 -475 -1055 -1029 -1225
-1195 -102 -99 -256 -249 -342 -334 l-158 -155 0 -1587 0 -1586 48 -44 c118
-108 1022 -985 1589 -1544 117 -115 217 -211 222 -214 5 -4 106 -102 225 -219
l215 -212 443 0 444 0 -1 -93 0 -92 -490 -3 -489 -2 -171 167 c-349 343 -1285
1256 -2000 1952 -132 128 -243 240 -247 250 -4 9 -7 359 -7 779 l-1 762 -307
-2 -308 -3 0 -898 0 -898 140 -137 c77 -75 340 -333 585 -572 245 -239 549
-536 675 -660 127 -124 316 -309 420 -410 385 -375 555 -541 755 -738 l205
-202 618 0 617 0 0 -100 0 -100 -656 0 -657 0 -334 328 c-185 180 -437 426
-562 547 -678 658 -1266 1232 -1746 1707 l-260 258 0 1990 0 1990 140 138
c542 530 927 905 1100 1071 72 69 227 220 345 336 118 116 464 455 767 753
l553 542 864 0 864 0 4 -24 c3 -13 6 -58 7 -100 l2 -76 -827 0 -827 0 -331
-322 c-182 -178 -459 -449 -616 -603 -218 -214 -610 -597 -660 -645 -3 -3 -84
-81 -180 -175 -96 -93 -263 -255 -370 -360 -107 -104 -293 -286 -413 -404
l-218 -216 -6 -901 -6 -901 38 -7 c21 -4 161 -6 312 -5 l273 3 0 50 c1 28 3
380 5 781 l4 730 108 104 c59 57 198 192 308 300 110 108 340 331 510 496 327
317 583 566 985 960 135 133 306 300 380 373 l135 132 1700 -1 1700 0 96 -92
c219 -210 1158 -1126 1964 -1917 127 -125 260 -255 298 -290 l67 -64 -2 -680
-3 -681 -97 -3 -98 -3 -1 243 c-1 134 0 421 1 638 l2 395 -134 130 c-73 72
-349 342 -613 600 -405 397 -887 868 -1446 1412 l-115 113 -757 0 -757 0 0
-305 0 -305 629 0 629 0 388 -382 c214 -210 461 -452 549 -538 88 -85 348
-339 578 -564 l417 -409 0 -1327 0 -1327 -128 -124 c-70 -68 -255 -248 -412
-399 -397 -383 -548 -529 -745 -720 -199 -194 -431 -419 -565 -548 l-95 -92
-417 0 -418 0 0 -305 0 -305 548 0 547 1 325 316 c179 174 397 386 485 471 88
86 246 239 350 342 105 102 305 295 445 430 140 135 340 329 445 431 104 103
205 199 222 214 l33 27 2 631 3 632 103 3 102 3 0 -669 0 -668 -168 -165
c-215 -210 -488 -475 -628 -608 -60 -58 -192 -186 -294 -286 -102 -100 -414
-403 -695 -675 -280 -272 -539 -522 -575 -557 l-65 -63 -592 0 -593 0 0 -305
0 -305 723 0 722 1 510 496 c281 272 647 629 815 792 168 162 406 395 530 516
124 121 274 267 335 325 60 58 188 182 285 275 96 94 205 200 242 235 l68 65
2 1913 2 1913 -254 252 c-339 335 -705 694 -1155 1132 -204 198 -469 457 -590
575 -121 118 -287 281 -370 361 -82 80 -211 205 -285 277 l-135 131 -822 1
-823 0 0 100 0 100 864 0 863 0 239 -232 c132 -128 405 -394 609 -593 203
-198 446 -434 540 -525 260 -253 616 -601 980 -961 181 -180 377 -372 435
-428 l104 -101 -2 -1997 -2 -1997 -28 -29 c-15 -16 -153 -151 -307 -300 -154
-149 -377 -366 -495 -481 -119 -116 -294 -287 -390 -381 -96 -93 -251 -244
-345 -335 -93 -91 -372 -361 -620 -600 -247 -239 -510 -494 -585 -567 l-135
-132 -867 -1 -868 0 0 905 0 905 482 0 482 0 105 102 c58 56 189 184 291 283
210 205 737 715 939 910 75 72 214 206 308 299 l173 170 0 568 0 568 -310 0
-310 0 0 -443 0 -443 -67 -65 c-103 -97 -572 -551 -1001 -967 l-383 -372 -355
0 -354 0 0 939 0 940 22 15 c12 8 79 72 150 142 l128 127 0 236 1 236 -183
177 -183 177 -245 0 -245 0 -183 -177 -182 -177 0 -236 0 -237 186 -181 186
-181 169 0 169 0 2 -1002 3 -1003 495 -3 496 -3 189 182 c196 188 322 310 630
609 99 96 254 247 345 335 91 87 222 215 293 284 l127 124 0 379 0 378 100 0
100 0 0 -424 0 -423 -92 -88 c-51 -48 -158 -151 -238 -229 -352 -342 -482
-468 -750 -726 -157 -151 -360 -348 -451 -437 l-166 -163 -541 0 -542 0 2
-1108 3 -1107 1009 -3 1010 -2 85 82 c77 74 485 469 911 883 85 82 243 236
350 340 107 105 339 330 515 500 296 287 474 461 983 960 l192 189 2 2078 2
2079 -194 192 c-107 105 -364 358 -570 562 -401 396 -546 538 -1095 1070 -192
187 -456 443 -585 570 -129 127 -312 306 -407 398 l-172 167 -1019 0 -1020 0
2 -187 c2 -104 3 -241 4 -305 l2 -118 887 0 887 0 151 -148 c82 -81 308 -300
500 -487 469 -455 706 -687 1040 -1015 397 -391 711 -699 849 -833 l120 -115
-2 -1828 -3 -1829 -167 -165 c-92 -90 -237 -232 -322 -314 -85 -83 -240 -234
-345 -336 -104 -102 -253 -246 -330 -320 -77 -74 -293 -283 -480 -465 -187
-181 -409 -397 -495 -480 -85 -82 -238 -232 -340 -332 l-186 -183 -572 0 -572
0 0 100 0 100 529 0 530 0 48 49 c26 26 113 111 193 187 80 76 314 303 520
503 206 201 440 428 520 505 80 77 226 219 325 316 271 264 769 747 863 835
l82 78 -2 816 -3 816 -312 3 -313 2 0 -693 0 -693 -567 -549 c-313 -303 -649
-629 -748 -725 -98 -96 -265 -258 -370 -360 -104 -102 -258 -251 -340 -332
l-151 -148 -402 0 -402 0 0 100 0 100 360 0 361 0 207 202 c393 383 557 544
697 678 77 74 293 283 480 465 401 389 539 522 618 596 l58 54 -1 1415 0 1415
-97 95 c-141 136 -917 894 -1193 1165 -535 525 -648 635 -710 693 l-65 61
-563 1 -563 0 3 98 3 97 578 2 c317 2 592 -1 611 -5 34 -7 194 -160 1101
-1051 570 -561 1078 -1056 1088 -1063 8 -5 10 -202 8 -707 l-3 -701 316 0 316
0 0 824 0 823 -367 359 c-203 198 -498 487 -658 644 -381 375 -649 637 -870
851 -99 96 -272 265 -385 375 -113 111 -221 215 -241 233 l-37 31 -1777 0
-1778 0 -61 -57 c-54 -51 -499 -485 -1181 -1153 -126 -124 -349 -340 -494
-480 -145 -140 -370 -359 -500 -486 -130 -127 -255 -249 -278 -270 l-43 -39
-6 -722 -7 -723 -100 0 -100 0 6 763 6 762 118 114 c65 63 204 198 308 300
105 102 258 251 340 331 83 79 251 244 375 365 124 121 515 504 869 850 l643
630 892 5 891 5 3 302 2 301 -192 4 c-106 2 -563 5 -1016 6 l-823 4 -192 -188z"/>
</g>
</svg>
